PathFileType	4	(X/Y/Z)	C:\Users\WrightLab\Desktop\Jo\P2_Trial10.trc
DataRate	CameraRate	NumFrames	NumMarkers	Units	OrigDataRate	OrigDataStartFrame	OrigNumFrames
100.00	100.00	       60	19	mm	100.00	105	       837
Frame#	Time	Headset_Front			Headset_Back			Headset_Left			Headset_Right			Left_Shoulder			Right_Shoulder			Sternum			C7			Left Elbow			Right Elbow			Left Wrist			Right Wrist			Left ASIS			Right ASIS			S2			Left Knee			Right Knee			Left Ankle			Right Ankle			
		X1	Y1	Z1	X2	Y2	Z2	X3	Y3	Z3	X4	Y4	Z4	X5	Y5	Z5	X6	Y6	Z6	X7	Y7	Z7	X8	Y8	Z8	X9	Y9	Z9	X10	Y10	Z10	X11	Y11	Z11	X12	Y12	Z12	X13	Y13	Z13	X14	Y14	Z14	X15	Y15	Z15	X16	Y16	Z16	X17	Y17	Z17	X18	Y18	Z18	X19	Y19	Z19	

105	1.040																																														-108.26089	419.44254	-1627.53857										
106	1.050																																														-108.30569	419.69727	-1627.03589										
107	1.060																																														-108.33245	419.89615	-1626.62988										
108	1.070																																														-108.33949	420.19501	-1625.96399										
109	1.080																																														-108.63334	419.46603	-1624.77185										
110	1.090																																														-108.69330	419.62610	-1624.51001										
111	1.100																																														-108.64725	419.67831	-1624.31421										
112	1.110																																														-108.68934	419.86151	-1623.96997										
113	1.120																																														-108.74398	419.25574	-1622.92932										
114	1.130																																														-108.60980	420.06714	-1623.61218										
115	1.140																																														-108.48436	420.21799	-1623.04456										
116	1.150																																														-108.46507	420.25125	-1623.07153										
117	1.160																																														-108.45705	420.20065	-1623.01746										
118	1.170																																														-108.44411	420.24356	-1622.76379										
119	1.180																																														-108.40884	420.27185	-1622.78027										
120	1.190																																														-108.24876	420.24512	-1622.46509										
121	1.200																																														-108.09574	420.23062	-1622.44409										
122	1.210																																														-107.99181	420.25854	-1622.43604										
123	1.220																																														-107.83563	420.23697	-1622.50818										
124	1.230																																														-107.70515	420.20245	-1622.42725										
125	1.240																																														-107.32313	420.73746	-1622.67761										
126	1.250																																														-106.04693	421.52664	-1623.83594										
127	1.260																																														-105.56773	421.72354	-1623.38281										
128	1.270																																														-106.40701	421.40570	-1623.11780										
129	1.280																																														-106.34362	421.44788	-1622.91589										
130	1.290																																														-106.25723	421.52362	-1622.59912										
131	1.300																																														-106.16535	421.62564	-1622.21350										
132	1.310																																														-106.06857	421.75204	-1621.76440										
133	1.320																																														-106.06857	421.75204	-1621.76440										
134	1.330																																														-105.24160	421.88647	-1621.50427										
135	1.340																																														-104.48389	422.08728	-1621.74109										
136	1.350																																														-104.21222	422.26151	-1620.88940										
137	1.360																																														-104.02502	422.61234	-1619.77844										
138	1.370																																														-104.03963	422.92178	-1619.09985										
139	1.380																																														-103.98774	422.98236	-1618.87512										
140	1.390																																														-103.83221	423.20844	-1618.10071										
141	1.400																																														-103.56838	423.72659	-1616.48096										
142	1.410																																														-103.48075	424.02646	-1615.65271										
143	1.420																																														-103.34667	424.09161	-1615.27991										
144	1.430																																														-103.28317	424.31775	-1614.65955										
145	1.440																																														-104.06947	424.54813	-1613.49353										
146	1.450																																														-104.78156	424.84219	-1612.58960										
147	1.460																																														-104.82287	424.11908	-1611.25781										
148	1.470																																														-105.03202	423.39957	-1609.91614										
149	1.480																																														-104.96243	423.51736	-1609.53235										
150	1.490																																														-104.75151	423.58087	-1609.03577										
151	1.500																																														-104.65888	423.58139	-1608.87988										
152	1.510																																														-105.11331	423.12183	-1607.39771										
153	1.520																																														-104.61502	423.43158	-1607.83911										
154	1.530																																														-104.66781	423.16351	-1607.54065										
155	1.540																																														-103.94125	423.49646	-1606.75708										
156	1.550																																														-103.19014	423.60559	-1606.85156										
157	1.560																																														-102.93312	423.83890	-1605.70313										
158	1.570																																														-102.74740	423.95959	-1605.24622										
159	1.580																																														-102.62721	424.01819	-1604.98926										
160	1.590																																														-101.97205	424.03345	-1604.23779										
161	1.600																																														-101.90977	424.18845	-1603.71375										
162	1.610																																														-101.63686	423.89511	-1603.15283										
163	1.620																																														-101.54444	424.03183	-1602.18665										
164	1.630																																														-101.38737	423.97821	-1601.84229										
